# xmcd
#
# Track frame offsets: 
#        150
#        16808
#        36949
#        52674
#        70764
#        88103
#        105256
#        123367
#        140797
#        154457
#        172611
#        192070
#        206584
#        220221
#        237553
#        252257
#        268676
#        284142
#        300382
#        315901
#        334396
#
# Disc length: 4633 seconds
#
# Revision: 2
# Processed by: cddbd v1.5.1PL2 Copyright (c) Steve Scherf et al.
# Submitted via: ExactAudioCopy v0.95b4
#
DISCID=2a121715
DTITLE=Various Artist - Bravo Hits 53 (2)
DYEAR=2006
DGENRE=Eurodance
TTITLE0=Kelly Clarkson - Because Of You
TTITLE1=Eros Ramazzotti and Anastacia - I Belong To You (Il Ritmo Della 
TTITLE1=Passione)
TTITLE2=Ne-Yo - So Sick
TTITLE3=Karmah - Just Be Good To Me
TTITLE4=Tokio Hotel - Rette Mich
TTITLE5=Lafee - Virus
TTITLE6=Silbermond - Unendlich
TTITLE7=Depeche Mode - Suffer Well
TTITLE8=Ashlee Simpson - Boyfriend
TTITLE9=Reamonn - Promise
TTITLE10=The Rasmus - Shot
TTITLE11=Christina Stürmer - Immer An Euch Geglaubt
TTITLE12=Killerpilze - Richtig Scheisse (Auf 'ne Schöne Art Und Weise)
TTITLE13=Rivo Drei - Wie Flugzeuge
TTITLE14=Elli - Get Up
TTITLE15=Neuser - Von Vorn Anfangen
TTITLE16=Annett Louisan - Wer Bin Ich Wirklich
TTITLE17=Nathalie Tineo - Ich Liebe Dich
TTITLE18=Jeanette - Endless Love
TTITLE19=Marc Terenzi - Rock The Nation
TTITLE20=Die Toten Hosen - Weltmeister
EXTD=
EXTT0=
EXTT1=
EXTT2=
EXTT3=
EXTT4=
EXTT5=
EXTT6=
EXTT7=
EXTT8=
EXTT9=
EXTT10=
EXTT11=
EXTT12=
EXTT13=
EXTT14=
EXTT15=
EXTT16=
EXTT17=
EXTT18=
EXTT19=
EXTT20=
PLAYORDER=
